<svg width="310" height="310" viewBox="0 0 310 310" fill="none" xmlns="http://www.w3.org/2000/svg">
<g filter="url(#filter0_d_452_121)">
<path d="M35.2712 131.093C35.2712 125.571 39.7484 121.029 45.2712 121.029H72.3916C77.9145 121.029 82.3917 125.571 82.3917 131.093V131.093C82.3917 136.616 77.9145 141.158 72.3917 141.158H45.2713C39.7484 141.158 35.2712 136.616 35.2712 131.093V131.093Z" fill="white"/>
<path d="M35.2712 131.093C35.2712 125.571 39.7484 121.029 45.2712 121.029H72.3916C77.9145 121.029 82.3917 125.571 82.3917 131.093V131.093C82.3917 136.616 77.9145 141.158 72.3917 141.158H45.2713C39.7484 141.158 35.2712 136.616 35.2712 131.093V131.093Z" stroke="white"/>
</g>
<g filter="url(#filter1_d_452_121)">
<path d="M97.5273 131.093C97.5273 125.571 102.004 121.029 107.527 121.029H129.507C135.03 121.029 139.507 125.571 139.507 131.093V131.093C139.507 136.616 135.03 141.158 129.507 141.158H107.527C102.005 141.158 97.5273 136.616 97.5273 131.093V131.093Z" fill="white"/>
<path d="M97.5273 131.093C97.5273 125.571 102.004 121.029 107.527 121.029H129.507C135.03 121.029 139.507 125.571 139.507 131.093V131.093C139.507 136.616 135.03 141.158 129.507 141.158H107.527C102.005 141.158 97.5273 136.616 97.5273 131.093V131.093Z" stroke="white"/>
</g>
<g filter="url(#filter2_d_452_121)">
<path d="M60.1213 41.1084C54.5985 41.1084 50.1213 45.5856 50.1213 51.1084V105.701C50.1213 111.224 54.5985 115.701 60.1213 115.701H67.5416V41.1084H60.1213Z" fill="white"/>
<path d="M60.1213 41.1084C54.5985 41.1084 50.1213 45.5856 50.1213 51.1084V105.701C50.1213 111.224 54.5985 115.701 60.1213 115.701H67.5416V41.1084H60.1213Z" stroke="white"/>
</g>
<g filter="url(#filter3_d_452_121)">
<path d="M111.216 43.6289C104.381 43.6289 99.4723 50.4624 101.608 57.0041L164.237 248.875L181.63 248.875L114.662 43.6289L111.216 43.6289Z" fill="white"/>
<path d="M111.216 43.6289C104.381 43.6289 99.4723 50.4624 101.608 57.0041L164.237 248.875L181.63 248.875L114.662 43.6289L111.216 43.6289Z" stroke="white"/>
</g>
<g filter="url(#filter4_d_452_121)">
<path d="M50.1213 146.486V259.032C50.1213 264.555 54.5985 269.032 60.1213 269.032H67.5416V258.524V146.486H50.1213Z" fill="white"/>
<path d="M67.5416 269.032H120.516L109.236 258.524H67.5416V269.032Z" fill="white"/>
<path d="M67.5416 269.032H60.1213C54.5985 269.032 50.1213 264.555 50.1213 259.032V146.486H67.5416V258.524M67.5416 269.032H120.516L109.236 258.524H67.5416M67.5416 269.032V258.524" stroke="white"/>
</g>
<g filter="url(#filter5_d_452_121)">
<path d="M135.795 50.5811L190.643 51.0033C220.913 51.0033 219.749 85.3481 219.749 90.9784C219.749 96.6086 220.008 130.109 196.076 130.109H176.802H163.736L159.338 119.411H194.007C203.45 119.411 209.659 101.114 209.142 90.9784C208.624 80.8432 209.142 62.5454 190.384 62.5454H140.322L135.795 50.5811Z" fill="white"/>
<path d="M163.736 130.109L205.519 231.735H219.102L176.802 130.109H163.736Z" fill="white"/>
<path d="M135.795 50.5811C135.795 50.5811 160.373 51.0033 190.643 51.0033M135.795 50.5811L140.322 62.5454M135.795 50.5811L190.643 51.0033M190.643 51.0033C220.913 51.0033 219.749 85.3481 219.749 90.9784C219.749 96.6086 220.008 130.109 196.076 130.109M196.076 130.109H176.802M196.076 130.109C187.086 130.109 182.175 130.109 176.802 130.109M163.736 130.109L159.338 119.411M163.736 130.109L205.519 231.735H219.102L176.802 130.109M163.736 130.109H176.802M163.736 130.109C163.736 130.109 167.871 130.109 176.802 130.109M159.338 119.411C159.338 119.411 184.563 119.411 194.007 119.411M159.338 119.411H194.007M194.007 119.411C203.45 119.411 209.659 101.114 209.142 90.9784C208.624 80.8432 209.142 62.5454 190.384 62.5454M190.384 62.5454C171.627 62.5454 140.322 62.5454 140.322 62.5454M190.384 62.5454H140.322" stroke="white"/>
</g>
<g filter="url(#filter6_d_452_121)">
<path d="M232.891 130.945C232.891 128.248 235.078 126.062 237.775 126.062H270.588V135.829H237.775C235.078 135.829 232.891 133.642 232.891 130.945V130.945Z" fill="white"/>
<path d="M232.891 130.945C232.891 128.248 235.078 126.062 237.775 126.062H270.588V135.829H237.775C235.078 135.829 232.891 133.642 232.891 130.945V130.945Z" stroke="white"/>
</g>
<g filter="url(#filter7_d_452_121)">
<path d="M232.891 94.8332C232.891 90.8279 236.138 87.5811 240.144 87.5811H290.007L276.157 102.085H240.144C236.138 102.085 232.891 98.8384 232.891 94.8332V94.8332Z" fill="white"/>
<path d="M232.891 94.8332C232.891 90.8279 236.138 87.5811 240.144 87.5811H290.007L276.157 102.085H240.144C236.138 102.085 232.891 98.8384 232.891 94.8332V94.8332Z" stroke="white"/>
</g>
<g filter="url(#filter8_d_452_121)">
<path d="M232.891 167.354C232.891 171.36 236.138 174.606 240.144 174.606H290.007L276.157 160.102H240.144C236.138 160.102 232.891 163.349 232.891 167.354V167.354Z" fill="white"/>
<path d="M232.891 167.354C232.891 171.36 236.138 174.606 240.144 174.606H290.007L276.157 160.102H240.144C236.138 160.102 232.891 163.349 232.891 167.354V167.354Z" stroke="white"/>
</g>
<g filter="url(#filter9_d_452_121)">
<path d="M36.4136 301V48.5284C36.4136 37.4827 45.3679 28.5284 56.4136 28.5284H305C302.656 9.10926 295.596 2.89272 271.73 1H55C27.3858 1 5 23.3858 5 51V279.984C11.3171 292.609 16.2257 298.674 36.4136 301Z" fill="white"/>
<path d="M36.4136 301V48.5284C36.4136 37.4827 45.3679 28.5284 56.4136 28.5284H305C302.656 9.10926 295.596 2.89272 271.73 1H55C27.3858 1 5 23.3858 5 51V279.984C11.3171 292.609 16.2257 298.674 36.4136 301Z" stroke="white"/>
</g>
<defs>
<filter id="filter0_d_452_121" x="30.7712" y="120.529" width="56.1204" height="29.1279" filterUnits="userSpaceOnUse" color-interpolation-filters="sRGB">
<feFlood flood-opacity="0" result="BackgroundImageFix"/>
<feColorMatrix in="SourceAlpha" type="matrix" values="0 0 0 0 0 0 0 0 0 0 0 0 0 0 0 0 0 0 127 0" result="hardAlpha"/>
<feOffset dy="4"/>
<feGaussianBlur stdDeviation="2"/>
<feComposite in2="hardAlpha" operator="out"/>
<feColorMatrix type="matrix" values="0 0 0 0 0 0 0 0 0 0 0 0 0 0 0 0 0 0 0.25 0"/>
<feBlend mode="normal" in2="BackgroundImageFix" result="effect1_dropShadow_452_121"/>
<feBlend mode="normal" in="SourceGraphic" in2="effect1_dropShadow_452_121" result="shape"/>
</filter>
<filter id="filter1_d_452_121" x="93.0273" y="120.529" width="50.98" height="29.1279" filterUnits="userSpaceOnUse" color-interpolation-filters="sRGB">
<feFlood flood-opacity="0" result="BackgroundImageFix"/>
<feColorMatrix in="SourceAlpha" type="matrix" values="0 0 0 0 0 0 0 0 0 0 0 0 0 0 0 0 0 0 127 0" result="hardAlpha"/>
<feOffset dy="4"/>
<feGaussianBlur stdDeviation="2"/>
<feComposite in2="hardAlpha" operator="out"/>
<feColorMatrix type="matrix" values="0 0 0 0 0 0 0 0 0 0 0 0 0 0 0 0 0 0 0.25 0"/>
<feBlend mode="normal" in2="BackgroundImageFix" result="effect1_dropShadow_452_121"/>
<feBlend mode="normal" in="SourceGraphic" in2="effect1_dropShadow_452_121" result="shape"/>
</filter>
<filter id="filter2_d_452_121" x="45.6213" y="40.6084" width="26.4203" height="83.5928" filterUnits="userSpaceOnUse" color-interpolation-filters="sRGB">
<feFlood flood-opacity="0" result="BackgroundImageFix"/>
<feColorMatrix in="SourceAlpha" type="matrix" values="0 0 0 0 0 0 0 0 0 0 0 0 0 0 0 0 0 0 127 0" result="hardAlpha"/>
<feOffset dy="4"/>
<feGaussianBlur stdDeviation="2"/>
<feComposite in2="hardAlpha" operator="out"/>
<feColorMatrix type="matrix" values="0 0 0 0 0 0 0 0 0 0 0 0 0 0 0 0 0 0 0.25 0"/>
<feBlend mode="normal" in2="BackgroundImageFix" result="effect1_dropShadow_452_121"/>
<feBlend mode="normal" in="SourceGraphic" in2="effect1_dropShadow_452_121" result="shape"/>
</filter>
<filter id="filter3_d_452_121" x="96.6056" y="43.126" width="89.7146" height="214.252" filterUnits="userSpaceOnUse" color-interpolation-filters="sRGB">
<feFlood flood-opacity="0" result="BackgroundImageFix"/>
<feColorMatrix in="SourceAlpha" type="matrix" values="0 0 0 0 0 0 0 0 0 0 0 0 0 0 0 0 0 0 127 0" result="hardAlpha"/>
<feOffset dy="4"/>
<feGaussianBlur stdDeviation="2"/>
<feComposite in2="hardAlpha" operator="out"/>
<feColorMatrix type="matrix" values="0 0 0 0 0 0 0 0 0 0 0 0 0 0 0 0 0 0 0.25 0"/>
<feBlend mode="normal" in2="BackgroundImageFix" result="effect1_dropShadow_452_121"/>
<feBlend mode="normal" in="SourceGraphic" in2="effect1_dropShadow_452_121" result="shape"/>
</filter>
<filter id="filter4_d_452_121" x="45.6213" y="145.986" width="80.1654" height="131.546" filterUnits="userSpaceOnUse" color-interpolation-filters="sRGB">
<feFlood flood-opacity="0" result="BackgroundImageFix"/>
<feColorMatrix in="SourceAlpha" type="matrix" values="0 0 0 0 0 0 0 0 0 0 0 0 0 0 0 0 0 0 127 0" result="hardAlpha"/>
<feOffset dy="4"/>
<feGaussianBlur stdDeviation="2"/>
<feComposite in2="hardAlpha" operator="out"/>
<feColorMatrix type="matrix" values="0 0 0 0 0 0 0 0 0 0 0 0 0 0 0 0 0 0 0.25 0"/>
<feBlend mode="normal" in2="BackgroundImageFix" result="effect1_dropShadow_452_121"/>
<feBlend mode="normal" in="SourceGraphic" in2="effect1_dropShadow_452_121" result="shape"/>
</filter>
<filter id="filter5_d_452_121" x="131.069" y="50.0752" width="93.1862" height="190.16" filterUnits="userSpaceOnUse" color-interpolation-filters="sRGB">
<feFlood flood-opacity="0" result="BackgroundImageFix"/>
<feColorMatrix in="SourceAlpha" type="matrix" values="0 0 0 0 0 0 0 0 0 0 0 0 0 0 0 0 0 0 127 0" result="hardAlpha"/>
<feOffset dy="4"/>
<feGaussianBlur stdDeviation="2"/>
<feComposite in2="hardAlpha" operator="out"/>
<feColorMatrix type="matrix" values="0 0 0 0 0 0 0 0 0 0 0 0 0 0 0 0 0 0 0.25 0"/>
<feBlend mode="normal" in2="BackgroundImageFix" result="effect1_dropShadow_452_121"/>
<feBlend mode="normal" in="SourceGraphic" in2="effect1_dropShadow_452_121" result="shape"/>
</filter>
<filter id="filter6_d_452_121" x="228.391" y="125.562" width="46.6963" height="18.7676" filterUnits="userSpaceOnUse" color-interpolation-filters="sRGB">
<feFlood flood-opacity="0" result="BackgroundImageFix"/>
<feColorMatrix in="SourceAlpha" type="matrix" values="0 0 0 0 0 0 0 0 0 0 0 0 0 0 0 0 0 0 127 0" result="hardAlpha"/>
<feOffset dy="4"/>
<feGaussianBlur stdDeviation="2"/>
<feComposite in2="hardAlpha" operator="out"/>
<feColorMatrix type="matrix" values="0 0 0 0 0 0 0 0 0 0 0 0 0 0 0 0 0 0 0.25 0"/>
<feBlend mode="normal" in2="BackgroundImageFix" result="effect1_dropShadow_452_121"/>
<feBlend mode="normal" in="SourceGraphic" in2="effect1_dropShadow_452_121" result="shape"/>
</filter>
<filter id="filter7_d_452_121" x="228.391" y="87.0811" width="66.7844" height="23.5039" filterUnits="userSpaceOnUse" color-interpolation-filters="sRGB">
<feFlood flood-opacity="0" result="BackgroundImageFix"/>
<feColorMatrix in="SourceAlpha" type="matrix" values="0 0 0 0 0 0 0 0 0 0 0 0 0 0 0 0 0 0 127 0" result="hardAlpha"/>
<feOffset dy="4"/>
<feGaussianBlur stdDeviation="2"/>
<feComposite in2="hardAlpha" operator="out"/>
<feColorMatrix type="matrix" values="0 0 0 0 0 0 0 0 0 0 0 0 0 0 0 0 0 0 0.25 0"/>
<feBlend mode="normal" in2="BackgroundImageFix" result="effect1_dropShadow_452_121"/>
<feBlend mode="normal" in="SourceGraphic" in2="effect1_dropShadow_452_121" result="shape"/>
</filter>
<filter id="filter8_d_452_121" x="228.391" y="159.603" width="66.7844" height="23.5039" filterUnits="userSpaceOnUse" color-interpolation-filters="sRGB">
<feFlood flood-opacity="0" result="BackgroundImageFix"/>
<feColorMatrix in="SourceAlpha" type="matrix" values="0 0 0 0 0 0 0 0 0 0 0 0 0 0 0 0 0 0 127 0" result="hardAlpha"/>
<feOffset dy="4"/>
<feGaussianBlur stdDeviation="2"/>
<feComposite in2="hardAlpha" operator="out"/>
<feColorMatrix type="matrix" values="0 0 0 0 0 0 0 0 0 0 0 0 0 0 0 0 0 0 0.25 0"/>
<feBlend mode="normal" in2="BackgroundImageFix" result="effect1_dropShadow_452_121"/>
<feBlend mode="normal" in="SourceGraphic" in2="effect1_dropShadow_452_121" result="shape"/>
</filter>
<filter id="filter9_d_452_121" x="0.5" y="0.5" width="309.064" height="309.061" filterUnits="userSpaceOnUse" color-interpolation-filters="sRGB">
<feFlood flood-opacity="0" result="BackgroundImageFix"/>
<feColorMatrix in="SourceAlpha" type="matrix" values="0 0 0 0 0 0 0 0 0 0 0 0 0 0 0 0 0 0 127 0" result="hardAlpha"/>
<feOffset dy="4"/>
<feGaussianBlur stdDeviation="2"/>
<feComposite in2="hardAlpha" operator="out"/>
<feColorMatrix type="matrix" values="0 0 0 0 0 0 0 0 0 0 0 0 0 0 0 0 0 0 0.25 0"/>
<feBlend mode="normal" in2="BackgroundImageFix" result="effect1_dropShadow_452_121"/>
<feBlend mode="normal" in="SourceGraphic" in2="effect1_dropShadow_452_121" result="shape"/>
</filter>
</defs>
</svg>
