<?xml version="1.0" encoding="UTF-8" standalone="no"?>
<!DOCTYPE svg PUBLIC "-//W3C//DTD SVG 1.1//EN" "http://www.w3.org/Graphics/SVG/1.1/DTD/svg11.dtd">
<svg width="684" height="684" viewBox="0 0 684 684" fill="none" xmlns="http://www.w3.org/2000/svg">
	<g filter="url(#filter0_d_462_45)">
		<path d="M222.271 322.093C222.271 316.571 226.749 312.029 232.271 312.029H259.392C264.915 312.029 269.392 316.571 269.392 322.093V322.093C269.392 327.616 264.915 332.158 259.392 332.158H232.271C226.749 332.158 222.271 327.616 222.271 322.093V322.093Z" fill="white"/>
		<path d="M222.271 322.093C222.271 316.571 226.749 312.029 232.271 312.029H259.392C264.915 312.029 269.392 316.571 269.392 322.093V322.093C269.392 327.616 264.915 332.158 259.392 332.158H232.271C226.749 332.158 222.271 327.616 222.271 322.093V322.093Z" stroke="white"/>
	</g>
	<g filter="url(#filter1_d_462_45)">
		<path d="M284.528 322.093C284.528 316.571 289.005 312.029 294.528 312.029H316.508C322.031 312.029 326.508 316.571 326.508 322.093V322.093C326.508 327.616 322.031 332.158 316.508 332.158H294.528C289.005 332.158 284.528 327.616 284.528 322.093V322.093Z" fill="white"/>
		<path d="M284.528 322.093C284.528 316.571 289.005 312.029 294.528 312.029H316.508C322.031 312.029 326.508 316.571 326.508 322.093V322.093C326.508 327.616 322.031 332.158 316.508 332.158H294.528C289.005 332.158 284.528 327.616 284.528 322.093V322.093Z" stroke="white"/>
	</g>
	<g filter="url(#filter2_d_462_45)">
		<path d="M247.122 232.108C241.599 232.108 237.122 236.586 237.122 242.108V296.701C237.122 302.224 241.599 306.701 247.122 306.701H254.542V232.108H247.122Z" fill="white"/>
		<path d="M247.122 232.108C241.599 232.108 237.122 236.586 237.122 242.108V296.701C237.122 302.224 241.599 306.701 247.122 306.701H254.542V232.108H247.122Z" stroke="white"/>
	</g>
	<g filter="url(#filter3_d_462_45)">
		<path d="M298.216 234.63C291.381 234.63 286.472 241.463 288.608 248.005L351.237 439.876L368.63 439.876L301.662 234.63L298.216 234.63Z" fill="white"/>
		<path d="M298.216 234.63C291.381 234.63 286.472 241.463 288.608 248.005L351.237 439.876L368.63 439.876L301.662 234.63L298.216 234.63Z" stroke="white"/>
	</g>
	<g filter="url(#filter4_d_462_45)">
		<path d="M237.122 337.486V450.032C237.122 455.555 241.599 460.032 247.122 460.032H254.542V449.524V337.486H237.122Z" fill="white"/>
		<path d="M254.542 460.032H307.517L296.236 449.524H254.542V460.032Z" fill="white"/>
		<path d="M254.542 460.032H247.122C241.599 460.032 237.122 455.555 237.122 450.032V337.486H254.542V449.524M254.542 460.032H307.517L296.236 449.524H254.542M254.542 460.032V449.524" stroke="white"/>
	</g>
	<g filter="url(#filter5_d_462_45)">
		<path d="M322.795 241.581L377.643 242.003C407.913 242.003 406.749 276.348 406.749 281.978C406.749 287.609 407.008 321.109 383.076 321.109H363.802H350.736L346.338 310.411H381.007C390.45 310.411 396.659 292.114 396.142 281.978C395.624 271.843 396.142 253.545 377.384 253.545H327.322L322.795 241.581Z" fill="white"/>
		<path d="M350.736 321.109L392.519 422.735H406.102L363.802 321.109H350.736Z" fill="white"/>
		<path d="M322.795 241.581C322.795 241.581 347.373 242.003 377.643 242.003M322.795 241.581L327.322 253.545M322.795 241.581L377.643 242.003M377.643 242.003C407.913 242.003 406.749 276.348 406.749 281.978C406.749 287.609 407.008 321.109 383.076 321.109M383.076 321.109H363.802M383.076 321.109C374.086 321.109 369.175 321.109 363.802 321.109M350.736 321.109L346.338 310.411M350.736 321.109L392.519 422.735H406.102L363.802 321.109M350.736 321.109H363.802M350.736 321.109C350.736 321.109 354.871 321.109 363.802 321.109M346.338 310.411C346.338 310.411 371.563 310.411 381.007 310.411M346.338 310.411H381.007M381.007 310.411C390.45 310.411 396.659 292.114 396.142 281.978C395.624 271.843 396.142 253.545 377.384 253.545M377.384 253.545C358.627 253.545 327.322 253.545 327.322 253.545M377.384 253.545H327.322" stroke="white"/>
	</g>
	<g filter="url(#filter6_d_462_45)">
		<path d="M419.891 321.946C419.891 319.248 422.078 317.062 424.775 317.062H457.587V326.83H424.775C422.078 326.83 419.891 324.643 419.891 321.946V321.946Z" fill="white"/>
		<path d="M419.891 321.946C419.891 319.248 422.078 317.062 424.775 317.062H457.587V326.83H424.775C422.078 326.83 419.891 324.643 419.891 321.946V321.946Z" stroke="white"/>
	</g>
	<g filter="url(#filter7_d_462_45)">
		<path d="M419.891 285.833C419.891 281.828 423.138 278.581 427.143 278.581H477.007L463.156 293.085H427.143C423.138 293.085 419.891 289.838 419.891 285.833V285.833Z" fill="white"/>
		<path d="M419.891 285.833C419.891 281.828 423.138 278.581 427.143 278.581H477.007L463.156 293.085H427.143C423.138 293.085 419.891 289.838 419.891 285.833V285.833Z" stroke="white"/>
	</g>
	<g filter="url(#filter8_d_462_45)">
		<path d="M419.891 358.354C419.891 362.36 423.138 365.606 427.143 365.606H477.007L463.156 351.102H427.143C423.138 351.102 419.891 354.349 419.891 358.354V358.354Z" fill="white"/>
		<path d="M419.891 358.354C419.891 362.36 423.138 365.606 427.143 365.606H477.007L463.156 351.102H427.143C423.138 351.102 419.891 354.349 419.891 358.354V358.354Z" stroke="white"/>
	</g>
	<g filter="url(#filter9_d_462_45)">
		<path d="M223.414 492V239.528C223.414 228.483 232.368 219.528 243.414 219.528H492C489.656 200.109 482.596 193.893 458.73 192H242C214.386 192 192 214.386 192 242V470.984C198.317 483.609 203.226 489.674 223.414 492Z" fill="white"/>
		<path d="M223.414 492V239.528C223.414 228.483 232.368 219.528 243.414 219.528H492C489.656 200.109 482.596 193.893 458.73 192H242C214.386 192 192 214.386 192 242V470.984C198.317 483.609 203.226 489.674 223.414 492Z" stroke="white"/>
	</g>
	<defs>
		<filter id="filter0_d_462_45" x="217.771" y="311.529" width="56.1206" height="29.1279" filterUnits="userSpaceOnUse" color-interpolation-filters="sRGB">
			<feFlood flood-opacity="0" result="BackgroundImageFix"/>
			<feColorMatrix in="SourceAlpha" type="matrix" values="0 0 0 0 0 0 0 0 0 0 0 0 0 0 0 0 0 0 127 0" result="hardAlpha"/>
			<feOffset dy="4"/>
			<feGaussianBlur stdDeviation="2"/>
			<feComposite in2="hardAlpha" operator="out"/>
			<feColorMatrix type="matrix" values="0 0 0 0 0 0 0 0 0 0 0 0 0 0 0 0 0 0 0.25 0"/>
			<feBlend mode="normal" in2="BackgroundImageFix" result="effect1_dropShadow_462_45"/>
			<feBlend mode="normal" in="SourceGraphic" in2="effect1_dropShadow_462_45" result="shape"/>
		</filter>
		<filter id="filter1_d_462_45" x="280.028" y="311.529" width="50.98" height="29.1279" filterUnits="userSpaceOnUse" color-interpolation-filters="sRGB">
			<feFlood flood-opacity="0" result="BackgroundImageFix"/>
			<feColorMatrix in="SourceAlpha" type="matrix" values="0 0 0 0 0 0 0 0 0 0 0 0 0 0 0 0 0 0 127 0" result="hardAlpha"/>
			<feOffset dy="4"/>
			<feGaussianBlur stdDeviation="2"/>
			<feComposite in2="hardAlpha" operator="out"/>
			<feColorMatrix type="matrix" values="0 0 0 0 0 0 0 0 0 0 0 0 0 0 0 0 0 0 0.25 0"/>
			<feBlend mode="normal" in2="BackgroundImageFix" result="effect1_dropShadow_462_45"/>
			<feBlend mode="normal" in="SourceGraphic" in2="effect1_dropShadow_462_45" result="shape"/>
		</filter>
		<filter id="filter2_d_462_45" x="232.622" y="231.608" width="26.4204" height="83.5928" filterUnits="userSpaceOnUse" color-interpolation-filters="sRGB">
			<feFlood flood-opacity="0" result="BackgroundImageFix"/>
			<feColorMatrix in="SourceAlpha" type="matrix" values="0 0 0 0 0 0 0 0 0 0 0 0 0 0 0 0 0 0 127 0" result="hardAlpha"/>
			<feOffset dy="4"/>
			<feGaussianBlur stdDeviation="2"/>
			<feComposite in2="hardAlpha" operator="out"/>
			<feColorMatrix type="matrix" values="0 0 0 0 0 0 0 0 0 0 0 0 0 0 0 0 0 0 0.25 0"/>
			<feBlend mode="normal" in2="BackgroundImageFix" result="effect1_dropShadow_462_45"/>
			<feBlend mode="normal" in="SourceGraphic" in2="effect1_dropShadow_462_45" result="shape"/>
		</filter>
		<filter id="filter3_d_462_45" x="283.605" y="234.127" width="89.7148" height="214.252" filterUnits="userSpaceOnUse" color-interpolation-filters="sRGB">
			<feFlood flood-opacity="0" result="BackgroundImageFix"/>
			<feColorMatrix in="SourceAlpha" type="matrix" values="0 0 0 0 0 0 0 0 0 0 0 0 0 0 0 0 0 0 127 0" result="hardAlpha"/>
			<feOffset dy="4"/>
			<feGaussianBlur stdDeviation="2"/>
			<feComposite in2="hardAlpha" operator="out"/>
			<feColorMatrix type="matrix" values="0 0 0 0 0 0 0 0 0 0 0 0 0 0 0 0 0 0 0.25 0"/>
			<feBlend mode="normal" in2="BackgroundImageFix" result="effect1_dropShadow_462_45"/>
			<feBlend mode="normal" in="SourceGraphic" in2="effect1_dropShadow_462_45" result="shape"/>
		</filter>
		<filter id="filter4_d_462_45" x="232.622" y="336.986" width="80.1655" height="131.546" filterUnits="userSpaceOnUse" color-interpolation-filters="sRGB">
			<feFlood flood-opacity="0" result="BackgroundImageFix"/>
			<feColorMatrix in="SourceAlpha" type="matrix" values="0 0 0 0 0 0 0 0 0 0 0 0 0 0 0 0 0 0 127 0" result="hardAlpha"/>
			<feOffset dy="4"/>
			<feGaussianBlur stdDeviation="2"/>
			<feComposite in2="hardAlpha" operator="out"/>
			<feColorMatrix type="matrix" values="0 0 0 0 0 0 0 0 0 0 0 0 0 0 0 0 0 0 0.25 0"/>
			<feBlend mode="normal" in2="BackgroundImageFix" result="effect1_dropShadow_462_45"/>
			<feBlend mode="normal" in="SourceGraphic" in2="effect1_dropShadow_462_45" result="shape"/>
		</filter>
		<filter id="filter5_d_462_45" x="318.069" y="241.075" width="93.186" height="190.16" filterUnits="userSpaceOnUse" color-interpolation-filters="sRGB">
			<feFlood flood-opacity="0" result="BackgroundImageFix"/>
			<feColorMatrix in="SourceAlpha" type="matrix" values="0 0 0 0 0 0 0 0 0 0 0 0 0 0 0 0 0 0 127 0" result="hardAlpha"/>
			<feOffset dy="4"/>
			<feGaussianBlur stdDeviation="2"/>
			<feComposite in2="hardAlpha" operator="out"/>
			<feColorMatrix type="matrix" values="0 0 0 0 0 0 0 0 0 0 0 0 0 0 0 0 0 0 0.25 0"/>
			<feBlend mode="normal" in2="BackgroundImageFix" result="effect1_dropShadow_462_45"/>
			<feBlend mode="normal" in="SourceGraphic" in2="effect1_dropShadow_462_45" result="shape"/>
		</filter>
		<filter id="filter6_d_462_45" x="415.391" y="316.562" width="46.6963" height="18.7686" filterUnits="userSpaceOnUse" color-interpolation-filters="sRGB">
			<feFlood flood-opacity="0" result="BackgroundImageFix"/>
			<feColorMatrix in="SourceAlpha" type="matrix" values="0 0 0 0 0 0 0 0 0 0 0 0 0 0 0 0 0 0 127 0" result="hardAlpha"/>
			<feOffset dy="4"/>
			<feGaussianBlur stdDeviation="2"/>
			<feComposite in2="hardAlpha" operator="out"/>
			<feColorMatrix type="matrix" values="0 0 0 0 0 0 0 0 0 0 0 0 0 0 0 0 0 0 0.25 0"/>
			<feBlend mode="normal" in2="BackgroundImageFix" result="effect1_dropShadow_462_45"/>
			<feBlend mode="normal" in="SourceGraphic" in2="effect1_dropShadow_462_45" result="shape"/>
		</filter>
		<filter id="filter7_d_462_45" x="415.391" y="278.081" width="66.7847" height="23.5039" filterUnits="userSpaceOnUse" color-interpolation-filters="sRGB">
			<feFlood flood-opacity="0" result="BackgroundImageFix"/>
			<feColorMatrix in="SourceAlpha" type="matrix" values="0 0 0 0 0 0 0 0 0 0 0 0 0 0 0 0 0 0 127 0" result="hardAlpha"/>
			<feOffset dy="4"/>
			<feGaussianBlur stdDeviation="2"/>
			<feComposite in2="hardAlpha" operator="out"/>
			<feColorMatrix type="matrix" values="0 0 0 0 0 0 0 0 0 0 0 0 0 0 0 0 0 0 0.25 0"/>
			<feBlend mode="normal" in2="BackgroundImageFix" result="effect1_dropShadow_462_45"/>
			<feBlend mode="normal" in="SourceGraphic" in2="effect1_dropShadow_462_45" result="shape"/>
		</filter>
		<filter id="filter8_d_462_45" x="415.391" y="350.603" width="66.7847" height="23.5039" filterUnits="userSpaceOnUse" color-interpolation-filters="sRGB">
			<feFlood flood-opacity="0" result="BackgroundImageFix"/>
			<feColorMatrix in="SourceAlpha" type="matrix" values="0 0 0 0 0 0 0 0 0 0 0 0 0 0 0 0 0 0 127 0" result="hardAlpha"/>
			<feOffset dy="4"/>
			<feGaussianBlur stdDeviation="2"/>
			<feComposite in2="hardAlpha" operator="out"/>
			<feColorMatrix type="matrix" values="0 0 0 0 0 0 0 0 0 0 0 0 0 0 0 0 0 0 0.25 0"/>
			<feBlend mode="normal" in2="BackgroundImageFix" result="effect1_dropShadow_462_45"/>
			<feBlend mode="normal" in="SourceGraphic" in2="effect1_dropShadow_462_45" result="shape"/>
		</filter>
		<filter id="filter9_d_462_45" x="187.5" y="191.5" width="309.064" height="309.061" filterUnits="userSpaceOnUse" color-interpolation-filters="sRGB">
			<feFlood flood-opacity="0" result="BackgroundImageFix"/>
			<feColorMatrix in="SourceAlpha" type="matrix" values="0 0 0 0 0 0 0 0 0 0 0 0 0 0 0 0 0 0 127 0" result="hardAlpha"/>
			<feOffset dy="4"/>
			<feGaussianBlur stdDeviation="2"/>
			<feComposite in2="hardAlpha" operator="out"/>
			<feColorMatrix type="matrix" values="0 0 0 0 0 0 0 0 0 0 0 0 0 0 0 0 0 0 0.25 0"/>
			<feBlend mode="normal" in2="BackgroundImageFix" result="effect1_dropShadow_462_45"/>
			<feBlend mode="normal" in="SourceGraphic" in2="effect1_dropShadow_462_45" result="shape"/>
		</filter>
	</defs>
</svg>